<svg width="206" height="72" viewBox="0 0 206 72" fill="none" xmlns="http://www.w3.org/2000/svg">
<g clip-path="url(#clip0_13159_6723)">
<g clip-path="url(#clip1_13159_6723)">
<path fill-rule="evenodd" clip-rule="evenodd" d="M3.77075 8.54804C3.25353 9.61011 3.689 10.8934 4.74341 11.4144C6.2579 12.1627 7.57215 12.9006 8.8734 14.3783C9.65271 15.2633 10.9967 15.3444 11.8754 14.5594C12.754 13.7745 12.8345 12.4207 12.0552 11.5357C10.2009 9.4299 8.29222 8.39631 6.61644 7.56831C5.56203 7.04733 4.28797 7.48597 3.77075 8.54804Z" fill="#34322D"/>
<path fill-rule="evenodd" clip-rule="evenodd" d="M15.2642 2.31147C14.1248 2.59838 13.4321 3.76132 13.7169 4.90896C13.9159 5.71075 14.1015 6.39634 14.2714 7.02394C14.5966 8.22516 14.8643 9.21398 15.0584 10.3986C15.2497 11.5658 16.3441 12.3558 17.5029 12.1631C18.6616 11.9704 19.4459 10.868 19.2546 9.70086C19.0252 8.30072 18.6678 6.97595 18.3092 5.64626C18.1504 5.05745 17.9913 4.46768 17.843 3.86997C17.5581 2.72232 16.4036 2.02456 15.2642 2.31147Z" fill="#34322D"/>
<path fill-rule="evenodd" clip-rule="evenodd" d="M27.4202 3.62923C26.4161 3.01557 25.1083 3.33796 24.499 4.34932C23.3689 6.22538 22.7748 8.07263 22.223 10.2958C21.9382 11.4435 22.6309 12.6064 23.7703 12.8933C24.9097 13.1802 26.0642 12.4825 26.3491 11.3348C26.8605 9.2741 27.3297 7.90843 28.135 6.57157C28.7443 5.56022 28.4242 4.24289 27.4202 3.62923Z" fill="#34322D"/>
<path fill-rule="evenodd" clip-rule="evenodd" d="M38.2615 56.5424C42.3851 53.9071 45.2363 39.7739 44.609 35.5653C44.609 35.5653 43.9554 33.3059 42.3605 33.3058C41.1386 33.3057 40.4634 34.2992 40.2144 34.7639C39.999 34.6842 39.7798 34.6121 39.606 34.5559C39.5121 34.5256 39.3807 34.4838 39.2575 34.4447L39.0238 34.3702C38.833 34.309 38.6534 34.25 38.4842 34.1916L38.4847 34.1317C38.492 32.7657 38.3532 30.634 36.9383 28.413C36.7119 28.0575 36.4982 27.7398 36.3155 27.4702L36.2009 27.3014C36.065 27.1012 35.9584 26.9441 35.8557 26.7874C35.6039 26.4028 35.5351 26.2546 35.5084 26.1862L35.5072 26.1832C35.4968 26.1567 35.4755 26.1027 35.4698 25.9383C35.4626 25.7362 35.4798 25.3538 35.6109 24.6849L36.2919 21.9633L36.2945 21.9493C36.3394 21.6995 36.3797 21.475 36.4017 21.1093C36.422 20.7727 36.4262 20.2836 36.3407 19.7162C36.1787 18.6416 35.5573 16.6045 33.3675 15.4236C32.8324 15.135 32.1913 14.9623 31.5594 14.8796C31.1346 14.8241 30.5667 14.7861 29.9072 14.837C28.5618 14.9409 26.7962 15.4254 25.2245 16.8664L24.833 17.2781C23.9195 18.3815 22.9545 19.7478 22.2225 20.9568C20 19.9107 17.3839 18.7096 15.556 18.0639C13.5498 17.3552 11.3108 16.7621 9.20666 16.8384C6.87639 16.9229 4.25638 17.8999 2.88473 20.6649C2.32126 21.8008 2.08083 23.1274 2.37019 24.5099C2.6467 25.8311 3.33057 26.8416 3.98369 27.5466C5.19636 28.8557 6.82071 29.6666 7.96551 30.1582C8.84204 30.5345 9.74267 30.8477 10.54 31.1011C10.4558 31.2536 10.3714 31.4114 10.2901 31.5714C10.049 32.0455 9.76055 32.6798 9.57065 33.4055C9.38128 34.1291 9.23198 35.1602 9.50192 36.3233C9.77898 37.5171 10.3272 38.4494 10.9804 39.1624C10.9556 39.5333 10.9464 39.9241 10.9601 40.3283C11.0519 43.029 12.701 44.8294 14.1516 45.8504C15.5335 46.8231 17.1611 47.4201 18.477 47.8215C19.7476 48.2091 21.0894 48.5167 22.1796 48.7666L22.4129 48.8202C23.5748 49.0871 24.7231 49.3959 25.8719 49.7048C27.1748 50.0551 28.4783 50.4056 29.8027 50.6953C30.2359 50.7901 30.6567 50.8808 31.044 50.9634L31.1851 51.331C32.9032 55.7214 35.1972 58.5006 38.2615 56.5424ZM22.563 38.5728C22.3278 38.4773 22.1928 38.4139 22.0731 38.3535C21.0325 37.812 19.7523 38.2202 19.211 39.2674C18.6687 40.3167 19.0746 41.6107 20.1163 42.1571C20.2016 42.2016 20.2883 42.2436 20.3754 42.2847C20.5213 42.3535 20.7246 42.4451 20.9721 42.5457C21.4602 42.744 22.1541 42.9909 22.9408 43.159C24.3369 43.4573 26.9177 43.6848 28.6674 41.6648C29.5074 40.695 29.9112 39.4209 30.0646 38.2295C30.2226 37.0021 30.1438 35.6556 29.8354 34.3451C29.228 31.7635 27.6197 28.9385 24.6169 27.5987C22.044 26.4508 19.5013 26.1809 17.3571 26.423C15.9255 26.5847 14.5577 26.9905 13.4591 27.6089V27.5613C10.7722 26.7885 5.4253 25.2505 6.74204 22.5962C7.74022 20.584 10.475 20.7503 14.1842 22.0607C15.6908 22.593 17.7844 23.5414 19.7592 24.4663C20.3714 24.753 20.9721 25.0374 21.5404 25.3065C22.3687 25.6987 23.7535 26.3446 23.7535 26.3446C25.3286 24.4407 25.9401 23.3919 26.4799 22.4662C26.8511 21.8295 27.1884 21.2511 27.7819 20.4927C28.6219 19.4192 29.9797 18.7558 31.3724 19.1442C32.3431 19.6677 32.0965 20.9898 32.0965 20.9898L31.4219 23.6857C30.7778 26.8583 31.4907 27.9081 32.6657 29.6385C32.872 29.9424 33.0928 30.2674 33.3228 30.6285C34.2598 32.0994 34.2165 33.5139 34.1812 34.6683C34.1585 35.4108 34.139 36.0457 34.3859 36.5189C34.8943 37.4936 36.7967 38.0979 38.044 38.4941C38.3437 38.5893 38.6057 38.6726 38.8013 38.746L38.9349 38.799C38.7591 39.3481 38.5994 39.9165 38.4399 40.4844C37.7303 43.01 37.024 45.5242 34.9178 46.2776C32.2597 47.2283 29.6016 46.3287 29.6016 46.3287C29.1224 46.1877 28.6346 46.0785 28.1466 45.9693C27.5385 45.8332 26.9301 45.697 26.3381 45.4991C25.513 45.1906 24.3572 44.9254 23.1011 44.6372C20.1102 43.951 16.5505 43.1343 15.5312 41.2908C15.3594 40.9803 15.2598 40.6406 15.2471 40.2675C15.1895 38.5722 15.7791 37.0544 15.7791 37.0544C15.7791 37.0544 14.8646 37.0582 14.2233 36.4367C13.9843 36.2051 13.7832 35.8866 13.6815 35.4486C13.4785 34.5737 13.6528 33.3055 14.7161 32.2346L15.2488 31.6993C15.518 31.4282 16.316 30.8513 17.8309 30.6803C19.269 30.5179 21.0492 30.6923 22.8944 31.5156C24.3097 32.147 25.2883 33.5958 25.697 35.333C25.8968 36.1819 25.9334 37.0062 25.8469 37.6786C25.7557 38.3872 25.5548 38.7421 25.4627 38.8484C25.3483 38.9805 24.9451 39.208 23.8234 38.9683C23.3511 38.8674 22.9026 38.7108 22.563 38.5728Z" fill="#34322D"/>
<path d="M190.971 40.8816H189.693V33.3832H191.424C191.891 35.3608 192.564 36.8028 193.442 37.7092C194.321 38.6156 195.461 39.0688 196.862 39.0688C197.878 39.0688 198.661 38.8628 199.211 38.4508C199.787 38.0113 200.076 37.4208 200.076 36.6792C200.076 35.9101 199.732 35.1685 199.046 34.4544C198.359 33.7128 197.247 32.93 195.708 32.106C193.621 30.9799 192.124 29.8675 191.218 28.7688C190.311 27.6427 189.858 26.3792 189.858 24.9784C189.858 24.072 190.023 23.2343 190.352 22.4652C190.71 21.6687 191.176 20.982 191.753 20.4052C192.358 19.8284 193.072 19.3889 193.896 19.0868C194.72 18.7572 195.612 18.5924 196.574 18.5924C197.425 18.5924 198.263 18.716 199.087 18.9632C199.938 19.2104 200.68 19.5537 201.312 19.9932L202.053 19.0044H203.124V25.2256H201.518C200.886 23.66 200.227 22.5339 199.54 21.8472C198.881 21.1605 198.071 20.8172 197.109 20.8172C196.34 20.8172 195.722 21.0232 195.255 21.4352C194.816 21.8472 194.596 22.3965 194.596 23.0832C194.596 23.8523 194.926 24.5801 195.585 25.2668C196.272 25.9535 197.398 26.7088 198.963 27.5328C200.062 28.1371 201.01 28.7276 201.806 29.3044C202.603 29.8812 203.248 30.4717 203.742 31.076C204.237 31.6528 204.594 32.2708 204.814 32.93C205.061 33.5617 205.184 34.2484 205.184 34.99C205.184 35.9513 205.006 36.8165 204.649 37.5856C204.292 38.3547 203.784 39.0139 203.124 39.5632C202.465 40.1125 201.669 40.5383 200.735 40.8404C199.828 41.1425 198.812 41.2936 197.686 41.2936C196.505 41.2936 195.406 41.1425 194.39 40.8404C193.374 40.5108 192.536 40.0439 191.877 39.4396L190.971 40.8816Z" fill="#34322D"/>
<path d="M177.828 25.8024C177.828 24.7037 177.801 23.8385 177.746 23.2068C177.691 22.5476 177.54 22.0532 177.293 21.7236C177.046 21.3665 176.675 21.1331 176.18 21.0232C175.713 20.8859 175.068 20.776 174.244 20.6936V19.0456H183.555V31.5292C183.555 33.2047 183.569 34.5231 183.596 35.4844C183.651 36.4183 183.734 37.1187 183.844 37.5856C183.926 37.9427 184.022 38.2311 184.132 38.4508C184.242 38.6431 184.42 38.8079 184.668 38.9452C184.915 39.0551 185.244 39.1375 185.656 39.1924C186.096 39.2199 186.659 39.2336 187.346 39.2336V40.8404L179.147 41.3348L178.694 37.668H178.529C177.815 38.8216 176.812 39.7143 175.521 40.346C174.23 40.9777 172.788 41.2936 171.195 41.2936C168.256 41.2936 166.018 40.2499 164.48 38.1624C163.298 36.5693 162.708 34.3033 162.708 31.3644V25.8024C162.708 24.6763 162.68 23.7973 162.626 23.1656C162.571 22.5064 162.42 22.012 162.172 21.6824C161.953 21.3528 161.609 21.1331 161.142 21.0232C160.675 20.8859 160.03 20.776 159.206 20.6936V19.0456H168.435V30.7052C168.435 33.4793 168.778 35.4981 169.465 36.7616C170.151 37.9976 171.25 38.6156 172.761 38.6156C174.381 38.6156 175.631 37.874 176.51 36.3908C177.389 34.9625 177.828 32.8613 177.828 30.0872V25.8024Z" fill="#34322D"/>
<path d="M139.736 34.166C139.736 35.2921 139.764 36.1848 139.819 36.844C139.901 37.4757 140.052 37.9701 140.272 38.3272C140.519 38.6568 140.876 38.8765 141.343 38.9864C141.838 39.0963 142.497 39.1787 143.321 39.2336V40.8816H130.343V39.2336C131.139 39.1787 131.771 39.0963 132.238 38.9864C132.732 38.8765 133.103 38.6568 133.35 38.3272C133.625 37.9976 133.804 37.5307 133.886 36.9264C133.968 36.3221 134.01 35.4981 134.01 34.4544V29.3044C134.01 27.6839 133.982 26.3792 133.927 25.3904C133.872 24.3741 133.804 23.6875 133.721 23.3304C133.639 22.9733 133.529 22.6849 133.392 22.4652C133.254 22.218 133.048 22.0395 132.774 21.9296C132.499 21.7923 132.156 21.7099 131.744 21.6824C131.332 21.6275 130.81 21.6 130.178 21.6V20.1992L138.13 18.6336L138.665 22.2592H138.83C139.736 21.1056 140.808 20.2129 142.044 19.5812C143.28 18.9495 144.639 18.6336 146.122 18.6336C147.88 18.6336 149.295 18.8808 150.366 19.3752C151.465 19.8421 152.44 20.6387 153.291 21.7648C153.758 22.3965 154.17 23.2205 154.527 24.2368C154.884 25.2256 155.063 26.5989 155.063 28.3568V34.166C155.063 35.2921 155.09 36.1848 155.145 36.844C155.228 37.4757 155.379 37.9701 155.598 38.3272C155.846 38.6568 156.203 38.8765 156.67 38.9864C157.136 39.0963 157.768 39.1787 158.565 39.2336V40.8816H145.669V39.2336C146.493 39.2061 147.139 39.1375 147.606 39.0276C148.1 38.8903 148.471 38.6568 148.718 38.3272C148.965 37.9976 149.13 37.5307 149.212 36.9264C149.295 36.2947 149.336 35.4707 149.336 34.4544V28.8512C149.336 27.4504 149.254 26.2693 149.089 25.308C148.924 24.3467 148.649 23.5776 148.265 23.0008C147.908 22.3965 147.427 21.9708 146.823 21.7236C146.218 21.4489 145.463 21.3116 144.557 21.3116C143.678 21.3116 142.923 21.5588 142.291 22.0532C141.659 22.5476 141.11 23.2343 140.643 24.1132C140.396 24.6076 140.176 25.2531 139.984 26.0496C139.819 26.8187 139.736 27.6289 139.736 28.4804V34.166Z" fill="#34322D"/>
<path d="M120.075 29.1396C117.768 30.1833 116.024 31.1584 114.843 32.0648C113.689 32.9437 113.112 33.8639 113.112 34.8252C113.112 35.6217 113.332 36.2535 113.771 36.7204C114.211 37.1873 114.76 37.4208 115.419 37.4208C116.079 37.4208 116.697 37.3109 117.273 37.0912C117.85 36.844 118.345 36.5281 118.757 36.1436C119.169 35.7591 119.484 35.3059 119.704 34.784C119.951 34.2347 120.075 33.6579 120.075 33.0536V29.1396ZM120.075 26.956V25.2256C120.075 23.6325 119.787 22.4789 119.21 21.7648C118.66 21.0232 117.795 20.6524 116.614 20.6524C115.818 20.6524 115.213 20.8721 114.801 21.3116C114.389 21.7236 114.005 22.424 113.648 23.4128C113.401 24.0995 113.043 24.6351 112.577 25.0196C112.137 25.4041 111.519 25.5964 110.723 25.5964C109.953 25.5964 109.363 25.3629 108.951 24.896C108.539 24.4291 108.333 23.7699 108.333 22.9184C108.333 21.6 109.047 20.5563 110.475 19.7872C111.931 19.0181 114.115 18.6336 117.026 18.6336C120.102 18.6336 122.3 19.1967 123.618 20.3228C124.937 21.4215 125.596 23.2755 125.596 25.8848V34.9076C125.596 37.2423 126.063 38.4096 126.997 38.4096C127.518 38.4096 127.999 38.2311 128.439 37.874L129.057 39.0688C128.672 39.7555 128.068 40.3048 127.244 40.7168C126.447 41.1013 125.541 41.2936 124.525 41.2936C123.261 41.2936 122.3 40.9091 121.641 40.14C120.981 39.3709 120.652 38.286 120.652 36.8852H120.446C119.649 38.3135 118.619 39.3984 117.356 40.14C116.092 40.8816 114.65 41.2524 113.03 41.2524C111.299 41.2524 109.912 40.7717 108.869 39.8104C107.825 38.8216 107.303 37.5444 107.303 35.9788C107.303 34.7703 107.839 33.6441 108.91 32.6004C109.981 31.5292 111.766 30.4855 114.266 29.4692L120.075 26.956Z" fill="#34322D"/>
<path d="M71.3582 34.0836C71.3582 35.2372 71.3857 36.1436 71.4406 36.8028C71.4955 37.462 71.6466 37.9701 71.8938 38.3272C72.141 38.6568 72.4981 38.8765 72.965 38.9864C73.4319 39.0963 74.0774 39.1787 74.9014 39.2336V40.8816H61.8822V39.2336C62.7062 39.1787 63.3654 39.0963 63.8598 38.9864C64.3542 38.8765 64.725 38.6568 64.9722 38.3272C65.2194 37.9976 65.3842 37.5307 65.4666 36.9264C65.549 36.2947 65.5902 35.4569 65.5902 34.4132V29.3044C65.5902 27.7388 65.5627 26.4341 65.5078 25.3904C65.4803 24.3467 65.4117 23.6325 65.3018 23.248C65.2194 22.8909 65.1095 22.6163 64.9722 22.424C64.8623 22.2043 64.6701 22.0395 64.3954 21.9296C64.1482 21.7923 63.8186 21.7099 63.4066 21.6824C62.9946 21.6275 62.459 21.6 61.7998 21.6V20.1992L69.7514 18.6336L70.2458 22.218H70.493C71.6466 20.9271 72.8002 20.0069 73.9538 19.4576C75.1349 18.9083 76.4945 18.6336 78.0326 18.6336C79.8454 18.6336 81.3423 18.9495 82.5234 19.5812C83.7045 20.2129 84.5971 21.1193 85.2014 22.3004H85.3662C86.355 21.1468 87.5361 20.2541 88.9094 19.6224C90.2827 18.9632 91.7522 18.6336 93.3178 18.6336C94.9658 18.6336 96.3941 18.8396 97.6026 19.2516C98.8386 19.6636 99.7999 20.2541 100.487 21.0232C101.036 21.6549 101.434 22.4789 101.681 23.4952C101.956 24.5115 102.093 25.926 102.093 27.7388V34.0836C102.093 35.2097 102.121 36.1024 102.176 36.7616C102.258 37.4208 102.423 37.9289 102.67 38.286C102.917 38.6431 103.274 38.8765 103.741 38.9864C104.208 39.0963 104.854 39.1787 105.678 39.2336V40.8816H92.6586V39.2336C93.4826 39.2061 94.1281 39.1375 94.595 39.0276C95.0894 38.8903 95.4602 38.6568 95.7074 38.3272C95.9821 37.9701 96.1469 37.4895 96.2018 36.8852C96.2842 36.2809 96.3254 35.4569 96.3254 34.4132V29.016C96.3254 27.5877 96.243 26.3792 96.0782 25.3904C95.9134 24.4016 95.6525 23.6051 95.2954 23.0008C94.9383 22.3965 94.4577 21.9708 93.8534 21.7236C93.2766 21.4489 92.5625 21.3116 91.711 21.3116C90.7497 21.3116 89.9531 21.5451 89.3214 22.012C88.7171 22.4789 88.209 23.0832 87.797 23.8248C87.0829 25.1157 86.7258 26.7225 86.7258 28.6452V34.0836C86.7258 35.2097 86.7533 36.1024 86.8082 36.7616C86.8631 37.4208 87.0142 37.9289 87.2614 38.286C87.5086 38.6431 87.8657 38.8765 88.3326 38.9864C88.827 39.0963 89.4999 39.1787 90.3514 39.2336V40.8816H77.291V39.2336C78.115 39.1787 78.7605 39.0963 79.2274 38.9864C79.7218 38.8765 80.0926 38.6568 80.3398 38.3272C80.6145 37.9976 80.7793 37.5307 80.8342 36.9264C80.9166 36.2947 80.9578 35.4569 80.9578 34.4132V29.016C80.9578 27.5877 80.8754 26.3792 80.7106 25.3904C80.5458 24.4016 80.2711 23.6051 79.8866 23.0008C79.5295 22.3965 79.0489 21.9708 78.4446 21.7236C77.8403 21.4489 77.085 21.3116 76.1786 21.3116C75.2722 21.3116 74.5169 21.5313 73.9126 21.9708C73.3358 22.4103 72.8551 23.0008 72.4706 23.7424C72.1135 24.4016 71.8389 25.1569 71.6466 26.0084C71.4543 26.8599 71.3582 27.7388 71.3582 28.6452V34.0836Z" fill="#34322D"/>
</g>
<path d="M105.131 67.5707V62.0882H103.937V61.2131H105.131V60.4124C105.131 59.6598 105.324 59.0822 105.704 58.6884C106.089 58.2946 106.619 58.0977 107.297 58.0977C107.699 58.0977 108.05 58.1415 108.351 58.2334V59.1347C108.194 59.091 108.032 59.0603 107.87 59.0385C107.726 59.021 107.581 59.0122 107.437 59.0122C106.571 59.0122 106.142 59.4541 106.142 60.3424V61.2131H108.308V62.0882H106.142V67.5707H105.131Z" fill="#67788A"/>
<path d="M109.73 67.5707V61.213H110.741V62.32C110.942 61.9218 111.196 61.6112 111.507 61.3968C111.818 61.1824 112.176 61.073 112.588 61.073C112.776 61.073 112.964 61.0905 113.152 61.1299V62.1406C113.056 62.1275 112.951 62.1187 112.837 62.11C112.723 62.1012 112.614 62.0969 112.509 62.0969C112.045 62.0969 111.669 62.2369 111.38 62.5213C111.091 62.8057 110.881 63.182 110.746 63.6546V67.575H109.735L109.73 67.5707Z" fill="#67788A"/>
<path d="M117.085 67.7108C116.451 67.7108 115.899 67.5664 115.436 67.282C114.972 66.9976 114.6 66.5906 114.359 66.105C114.105 65.6062 113.979 65.0373 113.979 64.3941C113.979 63.7509 114.105 63.1734 114.359 62.6745C114.6 62.1889 114.972 61.7819 115.436 61.4975C115.899 61.2131 116.451 61.0687 117.085 61.0687H117.212C117.846 61.0687 118.398 61.2131 118.862 61.4975C119.325 61.7819 119.697 62.1889 119.938 62.6745C120.192 63.1734 120.319 63.7466 120.319 64.3941C120.319 65.0417 120.192 65.6062 119.938 66.105C119.697 66.5906 119.325 66.9976 118.862 67.282C118.398 67.5664 117.846 67.7108 117.212 67.7108H117.085ZM117.09 66.7788H117.203C117.838 66.7788 118.341 66.56 118.713 66.1268C119.085 65.6937 119.269 65.1161 119.269 64.3941C119.269 63.6722 119.085 63.0902 118.713 62.657C118.341 62.2239 117.838 62.0095 117.203 62.0095H117.09C116.455 62.0095 115.952 62.2239 115.58 62.657C115.208 63.0902 115.024 63.6678 115.024 64.3941C115.024 65.1205 115.208 65.6893 115.58 66.1268C115.952 66.56 116.455 66.7788 117.09 66.7788Z" fill="#67788A"/>
<path d="M121.78 67.5707V61.213H122.791V62.3944C123.022 61.9875 123.316 61.6637 123.674 61.4274C124.033 61.1911 124.449 61.073 124.921 61.073H125.048C126.107 61.073 126.785 61.5806 127.087 62.5957C127.332 62.1275 127.647 61.7556 128.037 61.4843C128.426 61.213 128.877 61.073 129.38 61.073H129.516C130.233 61.073 130.776 61.3137 131.157 61.7906C131.533 62.2719 131.721 62.9545 131.721 63.8471V67.575H130.71V63.9958C130.71 62.6744 130.225 62.0137 129.258 62.0137H129.144C128.689 62.0137 128.295 62.1669 127.967 62.4688C127.639 62.7707 127.398 63.1557 127.249 63.6196V67.575H126.238V63.9958C126.238 62.6744 125.757 62.0137 124.795 62.0137H124.672C124.217 62.0137 123.823 62.1669 123.499 62.4688C123.171 62.7707 122.935 63.1557 122.786 63.6196V67.575H121.775L121.78 67.5707Z" fill="#67788A"/>
<path d="M162.088 57.0607H164.556L168.747 64.6435L172.939 57.0607H175.35V69.5222H173.337V59.9704L169.662 66.5818H167.776L164.101 59.9704V69.5222H162.088V57.0607Z" fill="#34322D"/>
<path d="M181.839 69.7453C180.907 69.7453 180.089 69.5397 179.385 69.1284C178.685 68.7215 178.112 68.1308 177.735 67.4132C177.341 66.6825 177.145 65.8467 177.145 64.9016C177.145 63.9565 177.337 63.0989 177.722 62.3638C178.107 61.6287 178.641 61.0512 179.328 60.6355C180.015 60.2198 180.802 60.0142 181.691 60.0142C182.579 60.0142 183.336 60.2242 183.975 60.6399C184.614 61.0599 185.104 61.6419 185.449 62.3988C185.795 63.1514 185.966 64.0353 185.966 65.0504V65.6017H179.14C179.267 66.3631 179.573 66.9581 180.063 67.3957C180.553 67.8332 181.17 68.052 181.918 68.052C182.518 68.052 183.034 67.9645 183.467 67.7851C183.9 67.6057 184.307 67.3388 184.688 66.9756L185.756 68.2839C184.692 69.2597 183.393 69.7453 181.848 69.7453H181.839ZM183.305 62.3551C182.885 61.9263 182.334 61.7075 181.651 61.7075C180.969 61.7075 180.431 61.9263 179.984 62.3682C179.538 62.8057 179.254 63.3964 179.135 64.1403H184.032C183.97 63.3789 183.734 62.7839 183.31 62.3551H183.305Z" fill="#34322D"/>
<path d="M188.398 61.8868H186.547V60.2416H188.398V57.52H190.336V60.2416H193.15V61.8868H190.336V66.0611C190.336 66.7568 190.454 67.2512 190.691 67.5487C190.927 67.8463 191.334 67.995 191.911 67.995C192.126 67.995 192.344 67.9863 192.559 67.9644C192.738 67.9425 192.931 67.9163 193.145 67.8813V69.509C192.9 69.579 192.655 69.6315 192.401 69.6709C192.113 69.7146 191.824 69.7321 191.535 69.7321C189.439 69.7321 188.393 68.5857 188.393 66.2973V61.8912L188.398 61.8868Z" fill="#34322D"/>
<path d="M203.261 69.5222H201.358V68.2227C201.03 68.6996 200.584 69.089 200.067 69.3472C199.547 69.6097 198.951 69.741 198.286 69.7453C197.468 69.7453 196.742 69.5353 196.112 69.1196C195.482 68.6996 194.983 68.1264 194.62 67.3913C194.257 66.6562 194.077 65.8205 194.077 64.8754C194.077 63.9303 194.261 63.0858 194.628 62.3551C194.996 61.6244 195.504 61.0512 196.156 60.6355C196.803 60.2198 197.551 60.0142 198.396 60.0142C199.03 60.0142 199.599 60.1367 200.107 60.3817C200.605 60.6224 201.034 60.9812 201.362 61.4275V60.2329H203.266V69.5178L203.261 69.5222ZM201.323 63.4883C201.117 62.9589 200.789 62.5432 200.339 62.2369C199.892 61.9306 199.372 61.7775 198.785 61.7775C197.954 61.7775 197.293 62.0575 196.799 62.6132C196.304 63.1689 196.059 63.9259 196.059 64.8754C196.059 65.8249 196.296 66.5862 196.772 67.1463C197.249 67.702 197.893 67.982 198.706 67.982C199.306 67.982 199.84 67.8289 200.308 67.5182C200.767 67.2207 201.122 66.7831 201.323 66.2712V63.484V63.4883Z" fill="#34322D"/>
<path d="M152.366 56.6406C150.747 56.6406 149.482 57.857 148.34 59.406C146.765 57.402 145.452 56.6406 143.877 56.6406C140.67 56.6406 138.211 60.8193 138.211 65.2385C138.211 68.0039 139.55 69.7497 141.79 69.7497C143.405 69.7497 144.564 68.9884 146.625 65.3829C146.625 65.3829 147.483 63.8646 148.078 62.8189C148.283 63.1514 148.502 63.5146 148.734 63.8996L149.701 65.5273C151.587 68.6821 152.637 69.7497 154.536 69.7497C156.719 69.7497 157.936 67.982 157.936 65.1554C157.936 60.5261 155.42 56.6406 152.366 56.6406ZM145.054 64.4072C143.383 67.0281 142.805 67.6145 141.873 67.6145C140.941 67.6145 140.346 66.7744 140.346 65.2735C140.346 62.0663 141.948 58.7846 143.855 58.7846C144.888 58.7846 145.75 59.3797 147.076 61.2743C145.82 63.1995 145.059 64.4072 145.059 64.4072H145.054ZM151.368 64.0747L150.213 62.145C149.898 61.6375 149.6 61.1649 149.312 60.7405C150.353 59.1303 151.215 58.3296 152.235 58.3296C154.361 58.3296 156.059 61.4581 156.059 65.2998C156.059 66.7656 155.577 67.6145 154.584 67.6145C153.591 67.6145 153.175 66.9844 151.368 64.0747Z" fill="#34322D"/>
</g>
<defs>
<clipPath id="clip0_13159_6723">
<rect width="206" height="71.1636" fill="white"/>
</clipPath>
<clipPath id="clip1_13159_6723">
<rect width="206" height="59.9273" fill="white"/>
</clipPath>
</defs>
</svg>
